# xmcd
#
# Track frame offsets:
#	150
#	27205
#	48632
#	72622
#	93547
#	127624
#	147602
#	165351
#	187558
#
# Disc length: 2789 seconds
#
# Revision: 0
# Processed by: cddbd v1.5.2PL0 Copyright (c) Steve Scherf et al.
# Submitted via: dBpowerAMP V4.0
#
DISCID=740ae309
DTITLE=Jan Marvalinne - Jan Marvalinne - Intuition
DYEAR=2006
DGENRE=Blues
TTITLE0=Border-Line
TTITLE1=Existence
TTITLE2=Play and Sway
TTITLE3=Dont't Stop Making Music!
TTITLE4=The Paramusical Song
TTITLE5=The Magic Maze
TTITLE6=Intuition Show Me The Way
TTITLE7=Be Loved
TTITLE8=Tous Les Nuits
EXTD=Jan Marvalinne - Intuition - Serie "The Power Of Love"
EXTT0=
EXTT1=
EXTT2=
EXTT3=
EXTT4=
EXTT5=
EXTT6=
EXTT7=
EXTT8=
PLAYORDER=
